<svg id="Layer_1" data-name="Layer 1" xmlns="http://www.w3.org/2000/svg" viewBox="0 0 772.95 198"><defs><style>.cls-1{fill:#fff;}.cls-2{fill:#d6d0d0;}.cls-3{fill:red;}.cls-4{fill:#d11033;}.cls-5{fill:#e41138;}.cls-6{fill:#ee1b42;}.cls-7{fill:#e80f3e;}</style></defs><title>Untitled-2</title><path d="M319.87,447.74q-15.33,20.33-35.21,20.33a39.31,39.31,0,0,1-21.43-6.24,60.16,60.16,0,0,1-17-16.41,84.09,84.09,0,0,1-11.33-23.25,88.62,88.62,0,0,1-4.16-27,91.13,91.13,0,0,1,4.08-27.48A79.69,79.69,0,0,1,246,344.76,55.71,55.71,0,0,1,263.15,329a41.65,41.65,0,0,1,21.51-5.84q16.79,0,27.63,8.65a55,55,0,0,1,16.54,22.55L317.59,364q-5.23-12.48-13.86-18.52a33.09,33.09,0,0,0-19.39-6,28.43,28.43,0,0,0-16,4.73,42.69,42.69,0,0,0-12.22,12.48,62.65,62.65,0,0,0-7.82,17.93,79.47,79.47,0,0,0-2.77,21,74,74,0,0,0,3.09,21.64,63.91,63.91,0,0,0,8.48,17.93,41.69,41.69,0,0,0,12.71,12.17,30.26,30.26,0,0,0,16,4.43q18.9,0,34.07-22.55V409.48H294.93V395.8h37.32v71.26H319.87Z" transform="translate(-13.05 -296.8)"/><path d="M389.79,324.12h12.38l47.27,142.94H433.79L420.1,425.19H371.53L358,467.06H342.36Zm27,87-20.86-66-21.52,66Z" transform="translate(-13.05 -296.8)"/><path d="M565,467.06V356.54l-38.46,84.75h-8.31l-38.63-84.75V467.06H464.92V324.12H480.4l41.89,92.81,42.05-92.81h15.32V467.06Z" transform="translate(-13.05 -296.8)"/><path d="M685.93,451v16.11H607.36V324.12h77.1v16.11H622v46.3h54.28v15.1H622V451Z" transform="translate(-13.05 -296.8)"/><path d="M773.94,354.12a26.18,26.18,0,0,0-5.22-5.43,43.31,43.31,0,0,0-7.33-4.73,44.6,44.6,0,0,0-8.89-3.43,38,38,0,0,0-10-1.31q-13.53,0-19.8,6.24t-6.28,17.12a22.7,22.7,0,0,0,1.8,9.66,16.64,16.64,0,0,0,5.62,6.54,38.66,38.66,0,0,0,9.53,4.73c3.81,1.35,8.31,2.75,13.53,4.23a120.37,120.37,0,0,1,16.22,5.54A44.43,44.43,0,0,1,775.48,401a30.12,30.12,0,0,1,7.83,11.27A43.65,43.65,0,0,1,786,428.61a44.78,44.78,0,0,1-3.26,17.82,34.59,34.59,0,0,1-8.88,12.48,35.32,35.32,0,0,1-13.29,7.25A57.31,57.31,0,0,1,744,468.47a63.66,63.66,0,0,1-25.34-5.13,68.39,68.39,0,0,1-21.76-15l7-15.3a42.11,42.11,0,0,0,6.76,6.85,53,53,0,0,0,9.45,6.14,61,61,0,0,0,11.41,4.42,47.24,47.24,0,0,0,12.79,1.72q12.39,0,19.24-5.44t6.84-16.31a21.35,21.35,0,0,0-2.2-10.16,20.76,20.76,0,0,0-6.44-7.15,44.77,44.77,0,0,0-10.51-5.34q-6.27-2.31-14.26-4.73a122.12,122.12,0,0,1-15.48-5.63,40.6,40.6,0,0,1-11.17-7.25,27,27,0,0,1-6.76-10.27,41.13,41.13,0,0,1-2.28-14.5,49.29,49.29,0,0,1,3.09-18.12A37.82,37.82,0,0,1,713,334a35.42,35.42,0,0,1,13.2-8.15,52.62,52.62,0,0,1,37.81,1.7,58,58,0,0,1,16.79,11.88Z" transform="translate(-13.05 -296.8)"/><path class="cls-1" d="M211,395.8a99.12,99.12,0,0,1-99,99c-1,0-2,0-3.06,0a99,99,0,1,1,102-102C211,393.75,211,394.77,211,395.8Z" transform="translate(-13.05 -296.8)"/><polygon class="cls-2" points="42.96 67.04 73.14 97.22 105.22 84.45 73.77 53.02 42.96 67.04"/><path class="cls-2" d="M211,395.8a99.12,99.12,0,0,1-99,99c-1,0-2,0-3.06,0L86.87,472.62h0L56,441.77v0l7.7-36.09,3.49-1.75h0l13.47-6.72h0l5.92-2.93,4.14-2.07h0l4.9-2.43,1.84-.26h0l12.52-1.68h0l5-.66,22.37-3h0l10-1.35h0l7.74-1L143,369.56h0l-5.71-5.71,15.41-7,15.39-7L211,392.73C211,393.75,211,394.77,211,395.8Z" transform="translate(-13.05 -296.8)"/><path class="cls-3" d="M211,392.73a99,99,0,1,0-102,102c1,0,2,0,3.06,0a99.12,99.12,0,0,0,99-99C211,394.77,211,393.75,211,392.73Zm-99,83.9a80.22,80.22,0,0,1-25.17-4h0a80.9,80.9,0,1,1,25.19,4Z" transform="translate(-13.05 -296.8)"/><polygon class="cls-4" points="73.58 105.15 42.96 144.97 58.36 92.95 73.58 105.15"/><polygon class="cls-5" points="58.36 92.95 42.96 144.97 42.96 72.76 58.36 92.95"/><polygon class="cls-3" points="73.58 72.76 58.36 92.95 42.96 72.76 73.58 72.76"/><polygon class="cls-6" points="73.58 72.76 73.58 105.15 58.36 92.95 73.58 72.76"/><polygon class="cls-3" points="99.12 91.87 99.12 92.11 98.88 91.99 99.12 91.87"/><polygon class="cls-3" points="99.12 78.84 99.12 79.09 99 78.96 99.12 78.84"/><polygon class="cls-5" points="99.12 78.84 99 78.96 98.88 79.09 98.88 78.84 99.12 78.84"/><polygon class="cls-4" points="73.77 67.04 42.96 67.04 58.36 60.03 73.77 67.04"/><polygon class="cls-6" points="58.36 60.03 42.96 67.04 42.96 53.02 58.36 60.03"/><polygon class="cls-5" points="73.77 53.02 58.36 60.03 42.96 53.02 73.77 53.02"/><polygon class="cls-3" points="73.77 53.02 73.77 67.04 58.36 60.03 73.77 53.02"/><polygon class="cls-4" points="124.42 105.15 155.04 144.97 139.64 92.95 124.42 105.15"/><polygon class="cls-5" points="139.64 92.95 155.04 144.97 155.04 72.76 139.64 92.95"/><polygon class="cls-3" points="124.42 72.76 139.64 92.95 155.04 72.76 124.42 72.76"/><polygon class="cls-6" points="139.64 92.95 124.42 105.15 124.42 72.76 139.64 92.95"/><polygon class="cls-3" points="99 78.96 98.88 79.09 98.88 78.84 99 78.96"/><polygon class="cls-3" points="99.12 91.87 99.12 92.11 98.88 91.99 99.12 91.87"/><polygon class="cls-5" points="98.88 78.84 99.12 78.84 99.12 79.09 99 78.96 98.88 78.84"/><polygon class="cls-4" points="124.23 67.04 155.04 67.04 139.64 60.03 124.23 67.04"/><polygon class="cls-6" points="139.64 60.03 155.04 67.04 155.04 53.02 139.64 60.03"/><polygon class="cls-5" points="124.23 53.02 139.64 60.03 155.04 53.02 124.23 53.02"/><polygon class="cls-3" points="124.23 53.02 124.23 67.04 139.64 60.03 124.23 53.02"/><polygon class="cls-5" points="98.88 91.99 73.58 105.15 73.58 78.84 90.55 87.66 98.88 91.99"/><polygon class="cls-7" points="124.42 78.84 124.42 105.15 99.12 92.11 99.12 91.87 107.39 87.6 124.42 78.84"/><polygon class="cls-3" points="99.12 91.87 99.12 92.11 98.88 91.99 99.12 91.87"/><polygon class="cls-4" points="124.42 105.15 73.58 105.15 98.88 91.99 99.12 92.11 124.42 105.15"/><polygon class="cls-3" points="124.42 78.84 107.39 87.6 99.12 91.87 98.88 91.99 90.55 87.66 73.58 78.84 98.88 78.84 98.88 79.09 99 78.96 99.12 79.09 99.12 78.84 124.42 78.84"/><polygon class="cls-3" points="99.12 78.84 99.12 79.09 99 78.96 98.88 79.09 98.88 78.84 99.12 78.84"/></svg>