<svg xmlns="http://www.w3.org/2000/svg" viewBox="0 0 249.32 96.93"><defs><style>.cls-1{fill:#08c;stroke:#001788;stroke-width:3.75px;}</style></defs><title>Asset 8</title><g id="Layer_2" data-name="Layer 2"><g id="Layer_1-2" data-name="Layer 1"><rect class="cls-1" x="190.37" y="1.97" width="34.39" height="14.32"/><rect class="cls-1" x="199.49" y="80.73" width="47.95" height="14.32"/><path class="cls-1" d="M50.8,42,23.54,1.9H1.87V95.05H18.72V59.3c0-14-.14-26-.84-38.53l.5-.11c5.29,10.81,12.25,22.19,19.12,33L65,95.05h.65V67.7A245.41,245.41,0,0,0,50.8,42Z"/><polygon class="cls-1" points="138.63 95.03 138.63 95.05 65.68 95.05 65.68 1.9 94.25 1.9 98.77 16.3 86.69 16.3 86.69 39.71 100.94 39.71 100.94 54.1 86.69 54.1 86.69 80.65 118.97 80.65 123.48 95.03 138.63 95.03"/><path class="cls-1" d="M243.34,1.87,210.55,95H187.84L175.43,48.91a227.24,227.24,0,0,1-6.52-29.09h-.33a225,225,0,0,1-7.67,29.05L146.84,95H123.48L119,80.65,98.77,16.3,94.25,1.9h22.57l3.9,14.4,7.71,28.44c3,11.42,6,23.67,8,32.18h.33c1.86-9.1,5.07-20.57,8.5-32.42L158.09,1.87h23.45L193.2,45.71c2.83,11.09,5.27,21.48,7,30.74h.33c2.05-9.5,5-20.29,8.32-31.88l12.9-42.7Z"/></g></g></svg>